<svg width="56" height="48" viewBox="0 0 56 48" fill="none" xmlns="http://www.w3.org/2000/svg">
<g filter="url(#filter0_d_15_30)">
<rect x="17" y="9" width="5" height="5" fill="#2BA182"/>
<rect x="17.5" y="9.5" width="4" height="4" stroke="#2BA182"/>
</g>
<rect x="26.5" y="2.5" width="6" height="6" fill="#2BA182" stroke="#2BA182"/>
<circle cx="29" cy="27" r="3" fill="#474343"/>
<g filter="url(#filter1_d_15_30)">
<circle cx="39" cy="27" r="3" fill="black"/>
<circle cx="39" cy="27" r="2.5" stroke="black"/>
</g>
<circle cx="19" cy="27" r="3" fill="#625D5D"/>
<path d="M1.39205 27.0114V24.8807C2.99242 24.8807 4.10985 24.554 4.74432 23.9006C5.37879 23.2377 5.69602 22.1439 5.69602 20.6193V16.5426C5.69602 15.0937 5.85701 13.8769 6.17898 12.892C6.51042 11.8977 7.01231 11.1023 7.68466 10.5057C8.35701 9.90909 9.20928 9.47822 10.2415 9.21307C11.2737 8.94792 12.4905 8.81534 13.892 8.81534V12.1818C12.7936 12.1818 11.9366 12.3428 11.321 12.6648C10.7055 12.9867 10.2746 13.4886 10.0284 14.1705C9.79167 14.8428 9.6733 15.7045 9.6733 16.7557V21.9261C9.6733 22.6553 9.56439 23.3324 9.34659 23.9574C9.12879 24.5729 8.72633 25.108 8.1392 25.5625C7.55208 26.017 6.71402 26.3722 5.625 26.6278C4.53598 26.8835 3.125 27.0114 1.39205 27.0114ZM13.892 45.0511C12.4905 45.0511 11.2737 44.9186 10.2415 44.6534C9.20928 44.3883 8.35701 43.9574 7.68466 43.3608C7.01231 42.7642 6.51042 41.9688 6.17898 40.9744C5.85701 39.9896 5.69602 38.7727 5.69602 37.3239V33.233C5.69602 31.7178 5.37879 30.6288 4.74432 29.9659C4.10985 29.303 2.99242 28.9716 1.39205 28.9716V26.8551C3.125 26.8551 4.53598 26.983 5.625 27.2386C6.71402 27.4848 7.55208 27.84 8.1392 28.304C8.72633 28.7585 9.12879 29.2983 9.34659 29.9233C9.56439 30.5388 9.6733 31.2112 9.6733 31.9403V37.1108C9.6733 38.1525 9.79167 39.0095 10.0284 39.6818C10.2746 40.3636 10.7055 40.8655 11.321 41.1875C11.9366 41.5189 12.7936 41.6847 13.892 41.6847V45.0511ZM1.39205 28.9716V24.8807H5.3267V28.9716H1.39205Z" fill="black"/>
<path d="M55.7216 26.8551V28.9716C54.1212 28.9716 53.0038 29.303 52.3693 29.9659C51.7348 30.6288 51.4176 31.7178 51.4176 33.233V37.3239C51.4176 38.7727 51.2519 39.9896 50.9205 40.9744C50.5985 41.9688 50.1013 42.7642 49.429 43.3608C48.7566 43.9574 47.9044 44.3883 46.8722 44.6534C45.84 44.9186 44.6231 45.0511 43.2216 45.0511V41.6847C44.3201 41.6847 45.1771 41.5189 45.7926 41.1875C46.4081 40.8655 46.8343 40.3636 47.071 39.6818C47.3172 39.0095 47.4403 38.1525 47.4403 37.1108V31.9403C47.4403 31.2112 47.5492 30.5388 47.767 29.9233C47.9848 29.2983 48.3873 28.7585 48.9744 28.304C49.5616 27.84 50.3996 27.4848 51.4886 27.2386C52.5777 26.983 53.9886 26.8551 55.7216 26.8551ZM43.2216 8.81534C44.6231 8.81534 45.84 8.94792 46.8722 9.21307C47.9044 9.47822 48.7566 9.90909 49.429 10.5057C50.1013 11.1023 50.5985 11.8977 50.9205 12.892C51.2519 13.8769 51.4176 15.0937 51.4176 16.5426V20.6193C51.4176 22.1439 51.7348 23.2377 52.3693 23.9006C53.0038 24.554 54.1212 24.8807 55.7216 24.8807V27.0114C53.9886 27.0114 52.5777 26.8835 51.4886 26.6278C50.3996 26.3722 49.5616 26.017 48.9744 25.5625C48.3873 25.108 47.9848 24.5729 47.767 23.9574C47.5492 23.3324 47.4403 22.6553 47.4403 21.9261V16.7557C47.4403 15.7045 47.3172 14.8428 47.071 14.1705C46.8343 13.4886 46.4081 12.9867 45.7926 12.6648C45.1771 12.3428 44.3201 12.1818 43.2216 12.1818V8.81534ZM55.7216 24.8807V28.9716H51.7869V24.8807H55.7216Z" fill="black"/>
<defs>
<filter id="filter0_d_15_30" x="13" y="9" width="13" height="13" filterUnits="userSpaceOnUse" color-interpolation-filters="sRGB">
<feFlood flood-opacity="0" result="BackgroundImageFix"/>
<feColorMatrix in="SourceAlpha" type="matrix" values="0 0 0 0 0 0 0 0 0 0 0 0 0 0 0 0 0 0 127 0" result="hardAlpha"/>
<feOffset dy="4"/>
<feGaussianBlur stdDeviation="2"/>
<feComposite in2="hardAlpha" operator="out"/>
<feColorMatrix type="matrix" values="0 0 0 0 0 0 0 0 0 0 0 0 0 0 0 0 0 0 0.25 0"/>
<feBlend mode="normal" in2="BackgroundImageFix" result="effect1_dropShadow_15_30"/>
<feBlend mode="normal" in="SourceGraphic" in2="effect1_dropShadow_15_30" result="shape"/>
</filter>
<filter id="filter1_d_15_30" x="32" y="24" width="14" height="14" filterUnits="userSpaceOnUse" color-interpolation-filters="sRGB">
<feFlood flood-opacity="0" result="BackgroundImageFix"/>
<feColorMatrix in="SourceAlpha" type="matrix" values="0 0 0 0 0 0 0 0 0 0 0 0 0 0 0 0 0 0 127 0" result="hardAlpha"/>
<feOffset dy="4"/>
<feGaussianBlur stdDeviation="2"/>
<feComposite in2="hardAlpha" operator="out"/>
<feColorMatrix type="matrix" values="0 0 0 0 0 0 0 0 0 0 0 0 0 0 0 0 0 0 0.25 0"/>
<feBlend mode="normal" in2="BackgroundImageFix" result="effect1_dropShadow_15_30"/>
<feBlend mode="normal" in="SourceGraphic" in2="effect1_dropShadow_15_30" result="shape"/>
</filter>
</defs>
</svg>
